<svg xmlns="http://www.w3.org/2000/svg" width="22.918" height="29.7" viewBox="0 0 22.918 29.7">
    <g data-name="Group 3295">
        <path data-name="Path 2885" d="M121.9-487.153v14.853h22.918l-.011-6.765-.017-6.759-4.682-2.008-4.688-2.008-.012-2.037-.017-2.031-6.742-4.049L121.9-502zm4.061-8.79v.667h-2.727v-1.335h2.727zm0 2.727v.667h-2.727v-1.335h2.727zm4 0v.667H127.3v-1.335h2.669zm-4 2.669v.667h-2.727v-1.335h2.727zm4 0v.667H127.3v-1.335h2.669zm4.061 0v.667h-2.669v-1.335h2.669zm-8.065 2.727v.667h-2.727v-1.335h2.727zm4 0v.667H127.3v-1.335h2.669zm4.061 0v.667h-2.669v-1.335h2.669zm-8.094 2.7v.667h-2.669l-.017-.685-.018-.679 1.352.012 1.352.018v.667zm4.033 0v.7H127.3v-1.392h2.669zm4.061 0v.7h-2.669v-1.392h2.669zm5.4 0v.7h-2.669v-1.392h2.669zm-13.461 2.7v.667h-2.727v-1.335h2.727zm4 0v.667H127.3v-1.335h2.669zm4.061 0v.667h-2.669v-1.335h2.669zm5.4 0v.667h-2.669v-1.335h2.669zm4.061 0v.667h-2.669v-1.335h2.669v.667zm-17.551 2.7v.667l-1.346.017-1.352.012v-1.392l1.352.011 1.346.018zm4.033 0v.7H127.3v-1.392h2.669zm4.061 0v.7h-2.669v-1.392h2.669zm5.4 0v.7h-2.669v-1.392h2.669zm4.061 0v.7h-2.669v-1.392h2.669v.7zm-17.522 2.7v.667h-2.727v-1.347h2.727zm4 0v.667H127.3v-1.347h2.669zm4.061 0v.667h-2.669v-1.347h2.669zm5.4 0v.667h-2.669v-1.347h2.669zm4.061 0v.667h-2.669v-1.347h2.669v.667zm-17.551 2.7v.667l-1.346.017-1.352.012v-.656a3.33 3.33 0 0 1 .041-.7c.023-.018.627-.029 1.346-.023l1.311.018v.667zm4.033 0v.7H127.3v-1.392h2.669zm4.061 0v.7h-2.669v-1.392h2.669zm5.4 0v.7h-2.669v-1.392h2.669zm4.061 0v.7h-2.669v-1.392h2.669v.7z" transform="translate(-121.9 502)" style="fill:#fff"/>
    </g>
</svg>
