<svg xmlns="http://www.w3.org/2000/svg" width="23.295" height="16.599" viewBox="0 0 23.295 16.599">
    <path data-name="Path 2886" d="M167.021 48.885c0-.027.018-.053.017-.079l-7.109 6.85 7.1 6.631c0-.047-.009-.1-.009-.144z" transform="translate(-143.743 -47.215)" style="fill:#fff"/>
    <path data-name="Path 2887" d="m25 126.9-2.9 2.792a.759.759 0 0 1-1.044.008l-2.899-2.7-7.147 6.889a1.647 1.647 0 0 0 .556.111h20.005a1.646 1.646 0 0 0 .8-.22z" transform="translate(-9.896 -117.406)" style="fill:#fff"/>
    <path data-name="Path 2888" d="m17.174 43.78 10.849-10.451a1.644 1.644 0 0 0-.838-.244H7.18a1.649 1.649 0 0 0-1.05.391z" transform="translate(-5.51 -33.085)" style="fill:#fff"/>
    <path data-name="Path 2889" d="M0 52.1v13a1.651 1.651 0 0 0 .072.431l7.058-6.8z" transform="translate(0 -50.175)" style="fill:#fff"/>
</svg>
