<svg id="Group_3320" data-name="Group 3320" xmlns="http://www.w3.org/2000/svg" width="50.536" height="50.536" viewBox="0 0 50.536 50.536">
  <defs>
    <style>
      .cls-1 {
        fill: #fff;
      }
    </style>
  </defs>
  <g id="Group_3046" data-name="Group 3046" transform="translate(0 0)">
    <g id="Group_3045" data-name="Group 3045">
      <g id="Facebook_Circle_1_">
        <g id="Group_12" data-name="Group 12">
          <path id="Path_9" data-name="Path 9" class="cls-1" d="M785.768,93.1a25.268,25.268,0,1,0,25.268,25.268A25.277,25.277,0,0,0,785.768,93.1Zm0,48.11a23.044,23.044,0,1,1,23.044-23.044A23.034,23.034,0,0,1,785.768,141.21Zm2.224-28.3c0-1.011,0-1.415,1.617-1.415h1.819v-3.436H788.4c-3.638,0-5.053,1.819-5.053,4.649v2.224h-2.224v3.436h2.224v10.309h4.649V118.368h3.032l.4-3.436h-3.436Z" transform="translate(-760.5 -93.1)"/>
        </g>
      </g>
    </g>
  </g>
</svg>
