<svg data-name="google-play-svgrepo-com(1)" xmlns="http://www.w3.org/2000/svg" width="145.351" height="31.426" viewBox="0 0 145.351 31.426">
    <g data-name="Group 1721">
        <path data-name="Path 1985" d="M67.824 50.022c3.73-2.048 6.557-3.608 6.8-3.73.78-.415 1.585-1.512 0-2.364-.512-.268-3.266-1.78-6.8-3.73l-4.9 4.948z" transform="translate(-46.129 -29.469)" style="fill:#ffd900"/>
        <path data-name="Path 1986" d="M20.076 58.737 4.474 74.461a2.075 2.075 0 0 0 1.267-.317c1.023-.56 11.872-6.484 19.234-10.53z" transform="translate(-3.28 -43.059)" style="fill:#f43249"/>
        <path data-name="Path 1987" d="m20.009 15.678 4.9-4.924S6.772.856 5.675.272A1.9 1.9 0 0 0 4.384.027z" transform="translate(-3.214)" style="fill:#00ee76"/>
        <path data-name="Path 1988" d="M16.8 15.752 1.17.1C.536.247 0 .808 0 1.953v27.67c0 1.049.415 1.8 1.194 1.877z" transform="translate(0 -.074)" style="fill:#00d3ff"/>
    </g>
    <path data-name="Path 1989" d="M166.063 31.645a5.383 5.383 0 1 0 5.358 5.383 5.3 5.3 0 0 0-5.358-5.383zm0 8.624a3.276 3.276 0 1 1 3.01-3.269 3.112 3.112 0 0 1-3.01 3.27zM154.4 31.645a5.383 5.383 0 1 0 5.358 5.383 5.283 5.283 0 0 0-5.358-5.383zm0 8.624A3.276 3.276 0 1 1 157.413 37a3.112 3.112 0 0 1-3.01 3.265zM140.549 33.3v2.27h5.408a4.716 4.716 0 0 1-1.224 2.858 5.531 5.531 0 0 1-4.184 1.659 6.074 6.074 0 0 1 0-12.145 5.719 5.719 0 0 1 4.082 1.633l1.607-1.608a7.9 7.9 0 0 0-5.689-2.3 8.318 8.318 0 1 0 0 16.635 7.378 7.378 0 0 0 7.756-7.68 7.749 7.749 0 0 0-.128-1.429zm56.692 1.76a4.969 4.969 0 0 0-4.567-3.419 5.079 5.079 0 0 0-5.027 5.383 5.3 5.3 0 0 0 9.721 3.01l-1.811-1.225a3.043 3.043 0 0 1-2.628 1.48 2.661 2.661 0 0 1-2.577-1.633l7.118-2.985zm-7.246 1.812a2.96 2.96 0 0 1 2.781-3.138 2.06 2.06 0 0 1 1.99 1.148zm-5.795 5.183h2.348V26.287H184.2zm-3.826-9.211h-.074a3.665 3.665 0 0 0-2.807-1.2 5.378 5.378 0 0 0 0 10.741 3.6 3.6 0 0 0 2.807-1.225h.076v.765c0 2.067-1.1 3.164-2.858 3.164a2.951 2.951 0 0 1-2.679-1.914l-2.04.868a5.088 5.088 0 0 0 4.72 3.189c2.755 0 5.077-1.633 5.077-5.588v-9.67h-2.22v.868zM177.7 40.27a3.267 3.267 0 0 1 0-6.505 3.028 3.028 0 0 1 2.858 3.265 3.021 3.021 0 0 1-2.858 3.24zm30.489-13.982h-5.613v15.767h2.348v-5.971h3.265a4.9 4.9 0 1 0 0-9.8zm.076 7.6h-3.317v-5.41h3.317a2.744 2.744 0 0 1 2.755 2.7 2.778 2.778 0 0 1-2.755 2.706zM222.7 31.62a4.339 4.339 0 0 0-4.159 2.424l2.067.868a2.237 2.237 0 0 1 2.144-1.148 2.272 2.272 0 0 1 2.478 2.036v.154a5.04 5.04 0 0 0-2.449-.613c-2.245 0-4.516 1.25-4.516 3.547a3.621 3.621 0 0 0 3.878 3.47 3.263 3.263 0 0 0 2.985-1.556h.076v1.228h2.27v-6.047c-.025-2.783-2.091-4.363-4.774-4.363zm-.28 8.624c-.765 0-1.838-.383-1.838-1.326 0-1.225 1.326-1.684 2.475-1.684a4.212 4.212 0 0 1 2.144.536 2.824 2.824 0 0 1-2.778 2.474zm13.241-8.267-2.679 6.812h-.076l-2.78-6.812H227.6l4.184 9.542-2.373 5.333h2.449l6.4-14.875zm-21.019 10.078h2.348V26.287h-2.348z" transform="translate(-92.917 -19.783)" style="fill:#010b0c"/>
</svg>
