<svg xmlns="http://www.w3.org/2000/svg" xmlns:xlink="http://www.w3.org/1999/xlink" width="1922" height="1324.632" viewBox="0 0 1922 1324.632">
  <defs>
    <style>
      .cls-1 {
        fill: url(#radial-gradient);
      }
    </style>
    <radialGradient id="radial-gradient" cx="0.251" cy="-0.138" r="0.797" gradientTransform="matrix(1, 0, 0, -1.983, 0, 1.491)" gradientUnits="objectBoundingBox">
      <stop offset="0" stop-color="#fff"/>
      <stop offset="0.234" stop-color="#fff"/>
      <stop offset="0.495" stop-color="#ebebeb"/>
      <stop offset="0.827" stop-color="#fff"/>
      <stop offset="1" stop-color="#fff"/>
    </radialGradient>
  </defs>
  <g id="Group_1753" data-name="Group 1753" transform="translate(2 -2012.806)">
    <path id="Path_2334" data-name="Path 2334" class="cls-1" d="M0,1791.281c51.87-20.078,128.284-40.359,216-26.064,50.508,8.233,73.643,22.854,127.5,38.329,98.738,28.367,179.307,24.7,250.5,21.464,152.637-6.944,314.923-38.5,400.6-59.794s100.972-38.886,244.782-24.352,223.363,156.048,680.621,50.416v884.36H0Z" transform="translate(0 277.264)"/>
    <path id="Union_1" data-name="Union 1" class="cls-1" d="M0,762.356V748.048H0C.155,498.541,4.253,251.6,1.155,0,16.821,58.975,60.693,189,182.949,274.578c57.333,40.131,114.909,58.6,167.4,69.736,158.208,33.57,266.023-.484,373.467-34.538,87-27.575,173.759-55.15,286.831-46.821,292.7,21.559,359.427,254.072,625.426,225.481,128.188-13.779,225.719-79.924,283.65-127.85.49,144.062.98,261.944,1.469,387.464H1922v290.063c-51.924,18.8-128.417,37.784-216.225,24.4-50.561-7.707-73.719-21.4-127.632-35.883-98.841-26.557-179.495-23.126-250.761-20.095-152.8,6.5-242.966,48.223-401.493,65.17-69.293,7.408-118.083,11.659-191.238,7.836-226.872-11.858-347.524-70.812-532.424-8.177C108.883,1102.983,41.9,1150.577,0,1185.719Z" transform="translate(-2 2151.719)"/>
  </g>
</svg>
