<svg data-name="Group 3324" xmlns="http://www.w3.org/2000/svg" width="1921.643" height="1080.564" viewBox="0 0 1921.643 1080.564">
    <defs>
        <radialGradient id="lwn6xprnfa" cx=".309" cy="1.167" r=".665" gradientTransform="matrix(-1 0 0 1.794 .618 -.046)" gradientUnits="objectBoundingBox">
            <stop offset="0" stop-color="#fff"/>
            <stop offset=".112" stop-color="#fff"/>
            <stop offset=".475" stop-color="#e8e8e8"/>
            <stop offset="1" stop-color="#fff"/>
        </radialGradient>
        <radialGradient id="q4upaqhusb" cx=".726" cy="-.264" r=".876" gradientTransform="matrix(-1 0 0 1.714 1.453 .189)" gradientUnits="objectBoundingBox">
            <stop offset="0" stop-color="#fff"/>
            <stop offset=".112" stop-color="#fff"/>
            <stop offset=".435" stop-color="#e8e8e8"/>
            <stop offset=".74" stop-color="#fff"/>
            <stop offset="1" stop-color="#fff"/>
        </radialGradient>
    </defs>
    <path data-name="Path 2905" d="M1919.846 0H0v1080.563h1919.846z" transform="translate(.154)" style="fill:url(#lwn6xprnfa)"/>
    <path data-name="Path 2906" d="M1920.488 227.438c-15.663 58.977-59.527 189.005-181.76 274.58-57.323 40.131-114.888 58.6-167.369 69.737-286.261 60.755-407.51-99.973-660.176-81.36-292.648 21.559-359.36 254.074-625.31 225.483C157.709 702.1 60.2 635.954 2.276 588.028 1.517 811.121.759 971.452 0 1194.546h1920.488c4-324.946-4-642.157 0-967.108z" transform="translate(0 -113.982)" style="fill:url(#q4upaqhusb)"/>
</svg>
