<svg data-name="Group 3352" xmlns="http://www.w3.org/2000/svg" width="47.533" height="35.501" viewBox="0 0 47.533 35.501">
    <g data-name="Group 635">
        <path data-name="Path 742" d="M-.168-.269a4.757 4.757 0 0 1-4.338-6.559c.434-1.11-.04-1.909-1.282-2.05-.654-.075-1.158-.277-1.311-.958a1.226 1.226 0 0 1 .6-1.4A1.286 1.286 0 0 1-4.881-11a4.363 4.363 0 0 1 .58.575c.814 1 1.614 1.669 3.043.861a3.234 3.234 0 0 1 3.027.219 1.1 1.1 0 0 0 1.6-.358 11.454 11.454 0 0 1 1.456-1.431 1.154 1.154 0 0 1 1.51-.052 1.229 1.229 0 0 1 .511 1.312 1.158 1.158 0 0 1-1.112 1.007c-1.541.236-1.869.794-1.365 2.271A4.753 4.753 0 0 1-.168-.269" transform="translate(23.9 11.444)" style="fill-rule:evenodd;fill:#4d4d4d"/>
    </g>
    <g data-name="Group 636">
        <path data-name="Path 743" d="M-1.059-.236a1.882 1.882 0 0 1-.147.169C-3.187 1.84-2.7 2.006-5.254-.854c1.448 0 2.674-.007 3.9 0 .475 0 .638.2.3.613M-5.237 2.8c-.132.071-.28.109-.417.173-1.714.811-3.26.976-4.518-.865A16.33 16.33 0 0 0-12.143.093c-.205-.208-.581-.412-.472-.714.143-.393.589-.217.907-.236.451-.025.9-.006 1.6-.006C-7.61-1.5-6.741.992-5.146 2.263c.228.182.158.4-.092.54m-3.6-9.948c.75-.68 1.657-.105 2.457.132 1.7.5 1.569.429.467 1.8a5.513 5.513 0 0 1-5.563 2.277 11.749 11.749 0 0 0-1.55-.009c1.548-1.568 2.809-2.949 4.189-4.2M-1.2-3.7c.269.517.022.72-.443.728-1.122.023-2.245.008-3.367.008l-.323-.466a8.926 8.926 0 0 0 1.208-.83c1.087-1.031 2.2-.831 2.922.558m-32.539 6.681c-.75.679-1.657.106-2.457-.131-1.7-.5-1.569-.429-.467-1.8A5.516 5.516 0 0 1-31.1-1.23a11.557 11.557 0 0 0 1.551.01c-1.549 1.567-2.809 2.949-4.19 4.2m-7.638-3.442c-.269-.517-.022-.721.443-.729 1.122-.023 2.245-.008 3.368-.008l.323.467A8.806 8.806 0 0 0-38.454.1c-1.087 1.03-2.2.829-2.923-.558m-.144-3.467a2.057 2.057 0 0 1 .146-.17c1.981-1.907 1.5-2.072 4.049.788-1.449 0-2.675.006-3.9 0-.475 0-.638-.2-.295-.614m4.177-3.04c.132-.071.28-.109.417-.173 1.715-.811 3.26-.976 4.517.865a16.418 16.418 0 0 0 1.973 2.017c.2.21.58.412.471.714-.142.393-.589.219-.906.236-.452.025-.905 0-1.6.006-2.493.637-3.362-1.854-4.958-3.126-.229-.182-.159-.4.091-.54m39.6 4.323a15.094 15.094 0 0 0-2.4-3.11A14.062 14.062 0 0 0-21.29-4.038a26.269 26.269 0 0 1-1.479 2.28 11.871 11.871 0 0 1-7.1 4.875.885.885 0 0 1-1.106-.239c1.476-1.41 2.914-2.846 4.426-4.192.772-.689.814-1.154.031-1.873-1.573-1.444-3.063-2.977-4.743-4.628a11.407 11.407 0 0 1 5.8 2.213l-.063.063c-.464.464-.334.974.29 1.134l2.267.58c.624.16 1-.219.844-.843s-.421-1.644-.58-2.267-.67-.755-1.134-.29l-.259.259c-6.4-5.314-16.739-3.567-20.747 3.975a1.343 1.343 0 0 0 .007 1.473 15.1 15.1 0 0 0 2.405 3.112A14.062 14.062 0 0 0-21.29-.128a26.433 26.433 0 0 1 1.48-2.28 11.871 11.871 0 0 1 7.1-4.875.888.888 0 0 1 1.106.239c-1.476 1.41-2.913 2.846-4.425 4.193-.772.687-.815 1.154-.031 1.873C-14.493.467-13 2-11.322 3.651a11.408 11.408 0 0 1-5.8-2.212l.063-.064c.463-.464.333-.975-.291-1.134l-2.267-.58c-.624-.161-1 .219-.844.843l.581 2.267c.159.624.67.756 1.133.291l.26-.259C-12.084 8.117-1.747 6.37 2.26-1.173a1.342 1.342 0 0 0-.007-1.473" transform="translate(45.057 19.218)" style="fill:#f8c503"/>
    </g>
    <g data-name="Group 644">
        <path data-name="Path 751" d="M-.06 0a4.8 4.8 0 0 0-1.226.223c-.4.113-.826.27-1.25.437A12.784 12.784 0 0 0-.06 2.346 12.785 12.785 0 0 0 2.463.62C2.153.5 1.841.384 1.531.289A5.76 5.76 0 0 0-.06 0" transform="translate(23.826 32.117)" style="fill:#f8c503"/>
    </g>
    <g data-name="Group 645">
        <path data-name="Path 752" d="M-.15-.007A5.772 5.772 0 0 0-1.741-.3a4.791 4.791 0 0 0-1.227.222A15.7 15.7 0 0 0-4.55.493c-.7.29-1.357.6-1.83.84a6.754 6.754 0 0 0 .761 1.4c.589-.253 1.224-.5 1.852-.7a7.139 7.139 0 0 1 2.026-.375 7.62 7.62 0 0 1 2.16.373 16.152 16.152 0 0 1 1.748.662 6.747 6.747 0 0 0 .741-1.383 22.98 22.98 0 0 0-.5-.259A17.1 17.1 0 0 0-.15-.007" transform="translate(25.508 28.508)" style="fill:#f8c503"/>
    </g>
    <g data-name="Group 646">
        <path data-name="Path 753" d="M-.073-.055a7.107 7.107 0 0 1 2.025-.376 7.616 7.616 0 0 1 2.16.374 17.049 17.049 0 0 1 2.016.775c.322.145.62.291.889.426a4.832 4.832 0 0 0-.229-1.706s-2.938-1.76-4.836-1.76c-1.62 0-4.836 1.76-4.836 1.76a4.907 4.907 0 0 0-.225 1.746A23.515 23.515 0 0 1-.073-.055" transform="translate(21.815 26.689)" style="fill:#f8c503"/>
    </g>
    <g data-name="Group 647">
        <path data-name="Path 754" d="M-.247-.1a17.032 17.032 0 0 0-2.015-.772 7.621 7.621 0 0 0-2.16-.374 7.107 7.107 0 0 0-2.026.376A23.63 23.63 0 0 0-9.483.368a4.907 4.907 0 0 1 .225-1.746s3.216-1.76 4.837-1.76c1.9 0 4.836 1.76 4.836 1.76A4.859 4.859 0 0 1 .642.328 25.688 25.688 0 0 0-.247-.1m-.267 3.795a16.357 16.357 0 0 0-1.748-.661 7.621 7.621 0 0 0-2.16-.374 7.107 7.107 0 0 0-2.026.376 19.752 19.752 0 0 0-1.852.7 6.705 6.705 0 0 1-.761-1.4 29.15 29.15 0 0 1 1.83-.84A15.452 15.452 0 0 1-5.649.929 4.8 4.8 0 0 1-4.422.707 5.741 5.741 0 0 1-2.831 1 17 17 0 0 1-.272 2.054c.184.092.351.179.5.258a6.747 6.747 0 0 1-.742 1.383m-3.908 3.263A12.793 12.793 0 0 1-6.9 5.273c.425-.167.853-.324 1.25-.437a4.8 4.8 0 0 1 1.227-.223 5.741 5.741 0 0 1 1.591.29c.309.094.621.208.932.33a12.785 12.785 0 0 1-2.522 1.725m5.83-9.011A21.7 21.7 0 0 0-2.15-3.714a7.377 7.377 0 0 0-2.272-.462 7.1 7.1 0 0 0-2.127.462 28.381 28.381 0 0 0-3.7 1.661 6.265 6.265 0 0 0-.2 2.905 7.075 7.075 0 0 0 .266 1.128A7.942 7.942 0 0 0-9.119 4.1a10.05 10.05 0 0 0 1.335 1.539A15.067 15.067 0 0 0-4.422 8a14.993 14.993 0 0 0 3.399-2.4A10.03 10.03 0 0 0 .3 4.065a7.924 7.924 0 0 0 1.046-2.11A7.28 7.28 0 0 0 1.606.84a6.259 6.259 0 0 0-.2-2.893" transform="translate(28.189 27.505)" style="fill:#4d4d4d"/>
    </g>
</svg>
