<svg xmlns="http://www.w3.org/2000/svg" width="283.032" height="71.268" viewBox="0 0 283.032 71.268">
  <g id="Group_3343" data-name="Group 3343" transform="translate(-1953.986 483.57)">
    <g id="Group_3341" data-name="Group 3341" transform="translate(2080.591 -466)">
      <g id="Group_637" data-name="Group 637" transform="translate(0 1.019)">
        <path id="Path_744" data-name="Path 744" d="M0,16.444A19.732,19.732,0,0,0,3.184,5.276V-17.271H10.7V5.7q0,8.492-4.16,14.1Z" transform="translate(0 17.271)" fill="#f8c503"/>
      </g>
      <g id="Group_638" data-name="Group 638" transform="translate(15.371 8.876)">
        <path id="Path_745" data-name="Path 745" d="M5.012,10.914q-5.6,0-7.939-2.528T-5.264,1.1V-11.463H1.955V1.148q0,3.821,3.27,3.822a7.073,7.073,0,0,0,2.5-.428V-11.463h7.219V9.171a29.565,29.565,0,0,1-9.936,1.743" transform="translate(5.264 11.463)" fill="#f8c503"/>
      </g>
      <g id="Group_639" data-name="Group 639" transform="translate(40.253 8.365)">
        <path id="Path_746" data-name="Path 746" d="M0,10.914V-9.72a26.927,26.927,0,0,1,9.893-1.743q4.925,0,7.643,2.356A8.529,8.529,0,0,1,20.253-2.29v13.2H13.036v-12.7q0-3.733-3.227-3.736a7.6,7.6,0,0,0-2.59.428V10.914Z" transform="translate(0 11.463)" fill="#f8c503"/>
      </g>
      <g id="Group_640" data-name="Group 640" transform="translate(64.965 0)">
        <path id="Path_747" data-name="Path 747" d="M6.545,14.994l-4.119-7.6c-.906.623-1.6,1.091-2.081,1.4v6.2H-6.874v-30.4l7.219-.34V1.79a13.153,13.153,0,0,0,5.14-8.662H12.7q0,5.1-5.1,10.061l6.75,11.8Z" transform="translate(6.874 15.748)" fill="#f8c503"/>
      </g>
      <g id="Group_641" data-name="Group 641" transform="translate(88.744 1.02)">
        <path id="Path_748" data-name="Path 748" d="M3.562,11.391H6.746q4.2,0,4.2-2.8,0-3.1-4.2-3.1H3.562Zm0-11.51H7.044q2.843,0,2.844-2.887A2.246,2.246,0,0,0,9-4.936,3.755,3.755,0,0,0,6.7-5.594H3.562Zm-7.3,17.877V-11.964H6.619a13.3,13.3,0,0,1,7.836,2.038A6.588,6.588,0,0,1,17.32-4.238a6.95,6.95,0,0,1-2.93,5.9,7.38,7.38,0,0,1,3.99,7.006,8.15,8.15,0,0,1-2.93,6.709q-2.928,2.378-8.066,2.378Z" transform="translate(3.741 11.964)" fill="#f8c503"/>
      </g>
      <g id="Group_642" data-name="Group 642" transform="translate(113.2 8.365)">
        <path id="Path_749" data-name="Path 749" d="M6.566,4.453v-.34a3.262,3.262,0,0,0-.722-2.251,2.387,2.387,0,0,0-1.868-.806,2.977,2.977,0,0,0-2.229.892,4.7,4.7,0,0,0-1.167,2.5Zm6.879.722q0,1.824-.17,3.524H.748Q1.6,12.18,5.631,12.181a15.5,15.5,0,0,0,5.649-1.146l1.1,5.731a18.181,18.181,0,0,1-7.559,1.445,11.672,11.672,0,0,1-8.47-3.143A11.044,11.044,0,0,1-6.9,6.747,11.419,11.419,0,0,1-3.859-1.534,10.412,10.412,0,0,1,3.975-4.677a9.119,9.119,0,0,1,6.817,2.719,9.783,9.783,0,0,1,2.653,7.133" transform="translate(6.896 4.677)" fill="#f8c503"/>
      </g>
      <g id="Group_643" data-name="Group 643" transform="translate(136.086 8.365)">
        <path id="Path_750" data-name="Path 750" d="M6.566,4.453v-.34a3.262,3.262,0,0,0-.722-2.251,2.387,2.387,0,0,0-1.868-.806,2.977,2.977,0,0,0-2.229.892,4.7,4.7,0,0,0-1.167,2.5Zm6.879.722q0,1.824-.17,3.524H.748Q1.6,12.18,5.631,12.181a15.5,15.5,0,0,0,5.649-1.146l1.1,5.731a18.181,18.181,0,0,1-7.559,1.445,11.672,11.672,0,0,1-8.47-3.143A11.044,11.044,0,0,1-6.9,6.747,11.419,11.419,0,0,1-3.859-1.534,10.412,10.412,0,0,1,3.975-4.677a9.119,9.119,0,0,1,6.817,2.719,9.783,9.783,0,0,1,2.653,7.133" transform="translate(6.896 4.677)" fill="#f8c503"/>
      </g>
    </g>
    <g id="Group_3342" data-name="Group 3342" transform="translate(1953.986 -483.57)">
      <g id="Group_635" data-name="Group 635" transform="translate(33.647)">
        <path id="Path_742" data-name="Path 742" d="M6.856,10.99A9.55,9.55,0,0,1-1.854-2.178c.87-2.229-.08-3.832-2.574-4.115-1.313-.151-2.325-.557-2.633-1.923a2.461,2.461,0,0,1,1.2-2.815,2.581,2.581,0,0,1,3.256.472A8.758,8.758,0,0,1-1.442-9.4c1.635,2,3.24,3.35,6.108,1.729,1.868-1.059,4.175-.533,6.077.439a2.217,2.217,0,0,0,3.221-.719,23,23,0,0,1,2.923-2.872,2.317,2.317,0,0,1,3.031-.1A2.467,2.467,0,0,1,20.942-8.3,2.325,2.325,0,0,1,18.7-6.271c-3.093.474-3.752,1.594-2.741,4.56a9.542,9.542,0,0,1-9.108,12.7" transform="translate(7.139 11.444)" fill="#4d4d4d" fill-rule="evenodd"/>
      </g>
      <g id="Group_636" data-name="Group 636" transform="translate(0 18.427)">
        <path id="Path_743" data-name="Path 743" d="M43.268,9.64a3.778,3.778,0,0,1-.3.339C39,13.808,39.967,14.141,34.847,8.4c2.907,0,5.367-.014,7.828.01.953.008,1.28.394.594,1.231m-8.388,6.1c-.265.143-.563.22-.837.347-3.44,1.629-6.544,1.958-9.07-1.737a32.782,32.782,0,0,0-3.956-4.05c-.412-.418-1.166-.827-.947-1.433.286-.788,1.182-.435,1.821-.474.906-.051,1.815-.012,3.219-.012,5.007-1.278,6.751,3.723,9.954,6.275.459.365.318.81-.184,1.084M27.653-4.229c1.506-1.364,3.327-.212,4.932.265,3.415,1.01,3.15.861.937,3.613-2.968,3.7-6.495,5.334-11.168,4.571A23.585,23.585,0,0,0,19.243,4.2c3.107-3.148,5.64-5.92,8.41-8.431m15.326,6.91c.539,1.037.045,1.445-.89,1.462-2.252.047-4.507.016-6.759.016Q35,3.692,34.68,3.224a17.918,17.918,0,0,0,2.433-1.662c2.182-2.07,4.415-1.668,5.865,1.119M-22.343,16.093c-1.506,1.362-3.327.214-4.932-.263-3.415-1.01-3.15-.861-.937-3.613,2.97-3.7,6.495-5.332,11.168-4.573a23.2,23.2,0,0,0,3.113.02c-3.109,3.146-5.64,5.92-8.412,8.429M-37.669,9.185c-.539-1.037-.045-1.447.89-1.464,2.252-.047,4.507-.016,6.761-.016.218.314.431.625.649.937A17.677,17.677,0,0,0-31.8,10.3c-2.182,2.068-4.415,1.664-5.867-1.119m-.288-6.959a4.129,4.129,0,0,1,.294-.341c3.977-3.828,3.007-4.16,8.127,1.582-2.909,0-5.369.012-7.829-.008-.953-.01-1.28-.4-.592-1.233m8.386-6.1c.265-.143.563-.22.837-.347,3.442-1.629,6.544-1.958,9.068,1.737a32.959,32.959,0,0,0,3.96,4.05c.41.421,1.164.827.945,1.433-.284.788-1.182.439-1.819.474-.908.051-1.817.01-3.221.012-5,1.278-6.749-3.723-9.953-6.275-.459-.365-.32-.81.182-1.084M49.918,4.8a30.3,30.3,0,0,0-4.826-6.244A28.229,28.229,0,0,0,2.655,2.007V2A52.736,52.736,0,0,1-.315,6.582a23.83,23.83,0,0,1-14.246,9.786,1.777,1.777,0,0,1-2.221-.48c2.964-2.831,5.85-5.712,8.886-8.416,1.551-1.384,1.635-2.317.063-3.76-3.158-2.9-6.15-5.977-9.521-9.29A22.9,22.9,0,0,1-5.714-1.136l-.127.127c-.931.931-.67,1.954.582,2.276s3.3.843,4.552,1.164S1.308,1.993.986.74.142-2.561-.178-3.812s-1.345-1.515-2.276-.582c-.159.157-.337.335-.519.519-12.854-10.668-33.6-7.161-41.649,7.98a2.7,2.7,0,0,0,.014,2.956A30.318,30.318,0,0,0-39.78,13.31,28.229,28.229,0,0,0,2.655,9.858v0A53.064,53.064,0,0,1,5.626,5.282,23.831,23.831,0,0,1,19.87-4.5a1.783,1.783,0,0,1,2.221.48c-2.964,2.831-5.848,5.712-8.884,8.418-1.551,1.38-1.637,2.317-.063,3.76,3.156,2.9,6.148,5.975,9.521,9.288A22.9,22.9,0,0,1,11.025,13c.041-.043.086-.09.127-.129.929-.931.668-1.956-.584-2.276s-3.3-.843-4.552-1.164S4,9.871,4.323,11.124s.845,3.3,1.166,4.552,1.345,1.517,2.274.584c.159-.157.337-.335.521-.519,12.852,10.668,33.6,7.161,41.647-7.982A2.693,2.693,0,0,0,49.918,4.8" transform="translate(45.057 10.039)" fill="#f8c503"/>
      </g>
      <g id="Group_644" data-name="Group 644" transform="translate(42.74 64.476)">
        <path id="Path_751" data-name="Path 751" d="M2.435,0A9.626,9.626,0,0,0-.027.447c-.8.227-1.658.543-2.509.878A25.663,25.663,0,0,0,2.435,4.709,25.666,25.666,0,0,0,7.5,1.245C6.877,1,6.25.77,5.629.58A11.563,11.563,0,0,0,2.435,0" transform="translate(2.536 0)" fill="#f8c503"/>
      </g>
      <g id="Group_645" data-name="Group 645" transform="translate(38.399 56.635)">
        <path id="Path_752" data-name="Path 752" d="M6.127.284A11.587,11.587,0,0,0,2.933-.3,9.618,9.618,0,0,0,.469.149,31.522,31.522,0,0,0-2.706,1.288C-4.114,1.87-5.431,2.5-6.38,2.974A13.559,13.559,0,0,0-4.853,5.785c1.182-.508,2.456-1.01,3.719-1.408a14.332,14.332,0,0,1,4.068-.753,15.3,15.3,0,0,1,4.336.749A32.424,32.424,0,0,1,10.779,5.7a13.545,13.545,0,0,0,1.488-2.776c-.3-.159-.633-.333-1-.519A34.33,34.33,0,0,0,6.127.284" transform="translate(6.38 0.296)" fill="#f8c503"/>
      </g>
      <g id="Group_646" data-name="Group 646" transform="translate(37.546 48.916)">
        <path id="Path_753" data-name="Path 753" d="M2.988,2.23a14.268,14.268,0,0,1,4.066-.755,15.288,15.288,0,0,1,4.336.751A34.225,34.225,0,0,1,15.436,3.78c.647.292,1.245.584,1.784.855a9.7,9.7,0,0,0-.459-3.425s-5.9-3.532-9.707-3.532C3.8-2.322-2.654,1.21-2.654,1.21A9.85,9.85,0,0,0-3.1,4.716,47.206,47.206,0,0,1,2.988,2.23" transform="translate(3.112 2.322)" fill="#f8c503"/>
      </g>
      <g id="Group_647" data-name="Group 647" transform="translate(35.456 46.832)">
        <path id="Path_754" data-name="Path 754" d="M10.109,4.01A34.192,34.192,0,0,0,6.065,2.456,15.3,15.3,0,0,0,1.729,1.7a14.268,14.268,0,0,0-4.068.755A47.438,47.438,0,0,0-8.431,4.945,9.85,9.85,0,0,1-7.98,1.44s6.455-3.532,9.709-3.532c3.807,0,9.707,3.532,9.707,3.532A9.755,9.755,0,0,1,11.9,4.865c-.539-.271-1.139-.563-1.786-.855m-.535,7.614A32.836,32.836,0,0,0,6.065,10.3a15.3,15.3,0,0,0-4.336-.751,14.268,14.268,0,0,0-4.068.755,39.651,39.651,0,0,0-3.719,1.406A13.461,13.461,0,0,1-7.584,8.9c.949-.474,2.266-1.1,3.674-1.686A31.019,31.019,0,0,1-.735,6.073a9.638,9.638,0,0,1,2.464-.447,11.526,11.526,0,0,1,3.193.582A34.125,34.125,0,0,1,10.06,8.331c.369.184.7.359,1,.518a13.545,13.545,0,0,1-1.488,2.776M1.729,18.176a25.682,25.682,0,0,1-4.973-3.384c.853-.335,1.713-.651,2.509-.878a9.638,9.638,0,0,1,2.464-.447,11.526,11.526,0,0,1,3.193.582c.619.188,1.247.418,1.87.663a25.666,25.666,0,0,1-5.063,3.464M13.432.086A43.569,43.569,0,0,0,6.291-3.249a14.81,14.81,0,0,0-4.562-.927,14.249,14.249,0,0,0-4.27.927A56.975,56.975,0,0,0-9.976.086h0a12.576,12.576,0,0,0-.394,5.832,14.2,14.2,0,0,0,.533,2.264A15.943,15.943,0,0,0-7.7,12.442a20.176,20.176,0,0,0,2.68,3.086,30.248,30.248,0,0,0,6.749,4.732,30.1,30.1,0,0,0,6.824-4.8,20.136,20.136,0,0,0,2.654-3.087,15.908,15.908,0,0,0,2.1-4.234,14.614,14.614,0,0,0,.521-2.239,12.564,12.564,0,0,0-.4-5.808" transform="translate(10.527 4.176)" fill="#4d4d4d"/>
      </g>
    </g>
  </g>
</svg>
