<svg xmlns="http://www.w3.org/2000/svg" xmlns:xlink="http://www.w3.org/1999/xlink" width="1920" height="1102" viewBox="0 0 1920 1102">
    <defs>
        <radialGradient id="m6m5y55qfa" cx=".749" cy="1.138" r=".797" gradientTransform="matrix(-1 0 0 1.983 1.498 -3.02)" gradientUnits="objectBoundingBox">
            <stop offset="0" stop-color="#fff"/>
            <stop offset=".234" stop-color="#fff"/>
            <stop offset=".495" stop-color="#ebebeb"/>
            <stop offset=".827" stop-color="#fff"/>
            <stop offset="1" stop-color="#fff"/>
        </radialGradient>
        <radialGradient id="df9habaorc" cx=".251" cy="-.138" r=".797" gradientTransform="matrix(1 0 0 -1.983 0 1.491)" xlink:href="#m6m5y55qfa"/>
        <clipPath id="oflqk0ye3b">
            <path data-name="Rectangle 2008" style="fill:#fff;stroke:#707070" d="M0 0h1920v1102H0z"/>
        </clipPath>
    </defs>
    <g data-name="Mask Group 29" style="clip-path:url(#oflqk0ye3b)">
        <g data-name="Group 3338">
            <path data-name="Path 2334" d="M1920 2619.9c-51.87 20.078-128.284 40.359-216 26.064-50.508-8.233-73.643-22.854-127.5-38.329-98.738-28.367-179.307-24.7-250.5-21.465-152.637 6.944-314.923 38.5-400.6 59.794s-100.972 38.886-244.782 24.353S457.258 2514.27 0 2619.9v-884.36h1920z" transform="translate(0 -1559.203)" style="fill:url(#m6m5y55qfa)"/>
            <path data-name="Union 1" d="M0 762.356v-14.308C.155 498.541 4.253 251.6 1.155 0c15.666 58.975 59.538 189 181.794 274.578 57.333 40.131 114.909 58.6 167.4 69.736 158.208 33.57 266.023-.484 373.467-34.538 87-27.575 173.759-55.15 286.831-46.822 292.7 21.559 359.427 254.072 625.426 225.481 128.188-13.779 225.719-79.924 283.65-127.85.49 144.062.98 261.944 1.469 387.464h.808v290.063c-51.924 18.8-128.417 37.784-216.225 24.4-50.561-7.707-73.719-21.4-127.632-35.883-98.841-26.557-179.495-23.126-250.761-20.095-152.8 6.5-242.966 48.223-401.493 65.17-69.293 7.408-118.083 11.659-191.238 7.836-226.872-11.858-347.524-70.812-532.424-8.177C108.883 1102.983 41.9 1150.577 0 1185.719z" transform="rotate(180 961 488.763)" style="fill:url(#df9habaorc)"/>
        </g>
    </g>
</svg>
